<svg width="60" height="60" viewBox="0 0 60 60" fill="none" xmlns="http://www.w3.org/2000/svg">
<path d="M2.8125 33.75C3.06114 33.75 3.2996 33.6512 3.47541 33.4754C3.65123 33.2996 3.75 33.0611 3.75 32.8125V16.875H15V30.9375C14.9998 31.0752 15.0299 31.2113 15.0882 31.3361C15.1466 31.4608 15.2317 31.5712 15.3375 31.6594C15.5062 31.7991 15.7185 31.8754 15.9375 31.875H16.1063L20.2219 31.125C20.4651 31.0794 20.6805 30.9395 20.821 30.7358C20.9615 30.5321 21.0157 30.2811 20.9719 30.0375C20.9263 29.7943 20.7864 29.5789 20.5827 29.4384C20.3789 29.2979 20.1279 29.2437 19.8844 29.2875L16.875 29.8125V16.875H18.3375C18.5861 16.875 18.8246 16.7762 19.0004 16.6004C19.1762 16.4246 19.275 16.1861 19.275 15.9375C19.275 15.6889 19.1762 15.4504 19.0004 15.2746C18.8246 15.0988 18.5861 15 18.3375 15H2.8125C2.56386 15 2.3254 15.0988 2.14959 15.2746C1.97377 15.4504 1.875 15.6889 1.875 15.9375V32.8125C1.875 33.0611 1.97377 33.2996 2.14959 33.4754C2.3254 33.6512 2.56386 33.75 2.8125 33.75Z" fill="#F26A21"/>
<path d="M49.6875 38.6156C49.4389 38.6156 49.2004 38.7144 49.0246 38.8902C48.8488 39.066 48.75 39.3045 48.75 39.5531V56.25H3.75V36.5625C3.75 36.3139 3.65123 36.0754 3.47541 35.8996C3.2996 35.7238 3.06114 35.625 2.8125 35.625C2.56386 35.625 2.3254 35.7238 2.14959 35.8996C1.97377 36.0754 1.875 36.3139 1.875 36.5625V57.1875C1.875 57.4361 1.97377 57.6746 2.14959 57.8504C2.3254 58.0262 2.56386 58.125 2.8125 58.125H49.6875C49.9361 58.125 50.1746 58.0262 50.3504 57.8504C50.5262 57.6746 50.625 57.4361 50.625 57.1875V39.5531C50.625 39.3045 50.5262 39.066 50.3504 38.8902C50.1746 38.7144 49.9361 38.6156 49.6875 38.6156Z" fill="#F26A21"/>
<path d="M29.0625 48.75H44.0625C44.3111 48.75 44.5496 48.6512 44.7254 48.4754C44.9012 48.2996 45 48.0611 45 47.8125C45 47.5639 44.9012 47.3254 44.7254 47.1496C44.5496 46.9738 44.3111 46.875 44.0625 46.875H29.0625C28.8139 46.875 28.5754 46.9738 28.3996 47.1496C28.2238 47.3254 28.125 47.5639 28.125 47.8125C28.125 48.0611 28.2238 48.2996 28.3996 48.4754C28.5754 48.6512 28.8139 48.75 29.0625 48.75Z" fill="#F26A21"/>
<path d="M29.0625 52.5H44.0625C44.3111 52.5 44.5496 52.4012 44.7254 52.2254C44.9012 52.0496 45 51.8111 45 51.5625C45 51.3139 44.9012 51.0754 44.7254 50.8996C44.5496 50.7238 44.3111 50.625 44.0625 50.625H29.0625C28.8139 50.625 28.5754 50.7238 28.3996 50.8996C28.2238 51.0754 28.125 51.3139 28.125 51.5625C28.125 51.8111 28.2238 52.0496 28.3996 52.2254C28.5754 52.4012 28.8139 52.5 29.0625 52.5Z" fill="#F26A21"/>
<path d="M7.5 42.1875V51.5625C7.5 51.8111 7.59877 52.0496 7.77459 52.2254C7.9504 52.4012 8.18886 52.5 8.4375 52.5H23.4375C23.6861 52.5 23.9246 52.4012 24.1004 52.2254C24.2762 52.0496 24.375 51.8111 24.375 51.5625V42.1875C24.375 41.9389 24.2762 41.7004 24.1004 41.5246C23.9246 41.3488 23.6861 41.25 23.4375 41.25H8.4375C8.18886 41.25 7.9504 41.3488 7.77459 41.5246C7.59877 41.7004 7.5 41.9389 7.5 42.1875ZM9.375 43.125H22.5V50.625H9.375V43.125Z" fill="#F26A21"/>
<path d="M39.375 1.875C35.6666 1.875 32.0415 2.97467 28.9581 5.03494C25.8746 7.09522 23.4714 10.0236 22.0523 13.4497C20.6331 16.8758 20.2618 20.6458 20.9853 24.2829C21.7088 27.9201 23.4945 31.261 26.1168 33.8833C28.739 36.5055 32.0799 38.2913 35.7171 39.0147C39.3542 39.7382 43.1242 39.3669 46.5503 37.9477C49.9764 36.5286 52.9048 34.1254 54.9651 31.0419C57.0253 27.9585 58.125 24.3334 58.125 20.625C58.125 15.6522 56.1496 10.8831 52.6333 7.36675C49.117 3.85044 44.3478 1.875 39.375 1.875ZM39.375 37.5C36.0374 37.5 32.7748 36.5103 29.9998 34.6561C27.2247 32.8018 25.0618 30.1663 23.7845 27.0828C22.5073 23.9993 22.1731 20.6063 22.8243 17.3329C23.4754 14.0594 25.0826 11.0526 27.4426 8.69257C29.8026 6.33256 32.8094 4.72537 36.0829 4.07425C39.3563 3.42312 42.7493 3.7573 45.8328 5.03453C48.9163 6.31176 51.5518 8.47467 53.4061 11.2498C55.2603 14.0248 56.25 17.2874 56.25 20.625C56.25 22.8411 55.8135 25.0354 54.9655 27.0828C54.1174 29.1302 52.8744 30.9904 51.3074 32.5574C49.7404 34.1244 47.8802 35.3674 45.8328 36.2155C43.7854 37.0635 41.5911 37.5 39.375 37.5Z" fill="#F26A21"/>
<path d="M46.8749 15C46.3913 14.9985 45.9159 15.1246 45.4967 15.3656C45.2429 14.9665 44.8924 14.6378 44.4778 14.41C44.0632 14.1822 43.5979 14.0627 43.1249 14.0625C42.6413 14.0609 42.1659 14.1871 41.7467 14.4281C41.4057 13.8914 40.8928 13.4862 40.2917 13.2784C39.6907 13.0707 39.037 13.0728 38.4374 13.2844V9.375C38.4374 8.62908 38.141 7.91371 37.6136 7.38626C37.0861 6.85882 36.3708 6.5625 35.6249 6.5625C34.8789 6.5625 34.1636 6.85882 33.6361 7.38626C33.1087 7.91371 32.8124 8.62908 32.8124 9.375V18.3938L32.128 17.7188C31.5847 17.1755 30.8479 16.8703 30.0795 16.8703C29.3112 16.8703 28.5744 17.1755 28.0311 17.7188C27.4878 18.262 27.1826 18.9989 27.1826 19.7672C27.1826 20.5355 27.4878 21.2723 28.0311 21.8156L32.0249 25.8469C32.468 27.2495 32.711 28.7076 32.7467 30.1781C32.7921 30.8927 33.1083 31.5632 33.6309 32.0527C34.1535 32.5422 34.8432 32.8139 35.5592 32.8125H45.3467C45.9176 32.8139 46.4753 32.6415 46.9459 32.3183C47.4164 31.9952 47.7775 31.5364 47.9811 31.0031C48.2329 30.3518 48.5908 29.7467 49.0405 29.2125C49.4577 28.709 49.6865 28.0758 49.6874 27.4219V17.8125C49.6874 17.0666 49.391 16.3512 48.8636 15.8238C48.3361 15.2963 47.6208 15 46.8749 15ZM47.8124 27.4219C47.8102 27.6421 47.7305 27.8545 47.5874 28.0219C47.0034 28.7263 46.538 29.5211 46.2092 30.375C46.136 30.5427 46.0154 30.6853 45.8621 30.7853C45.7089 30.8852 45.5297 30.9381 45.3467 30.9375H35.5405C35.3013 30.9379 35.071 30.8469 34.8967 30.6831C34.7224 30.5193 34.6173 30.295 34.603 30.0563C34.5926 28.2991 34.2754 26.5573 33.6655 24.9094C33.6205 24.8157 33.5603 24.7302 33.4874 24.6562L29.3717 20.4938C29.2296 20.3514 29.1327 20.1703 29.0931 19.9731C29.0535 19.776 29.0729 19.5715 29.149 19.3853C29.2251 19.1991 29.3544 19.0395 29.5207 18.9265C29.6871 18.8135 29.8831 18.7521 30.0842 18.75C30.2205 18.7507 30.3553 18.7784 30.4808 18.8315C30.6063 18.8846 30.7201 18.962 30.8155 19.0594L33.0936 21.2906C33.2252 21.4196 33.3919 21.507 33.5729 21.5418C33.7539 21.5766 33.9411 21.5572 34.1112 21.4862C34.2812 21.4152 34.4266 21.2956 34.5291 21.1424C34.6315 20.9893 34.6866 20.8093 34.6874 20.625V9.375C34.6874 9.12636 34.7861 8.8879 34.9619 8.71209C35.1378 8.53627 35.3762 8.4375 35.6249 8.4375C35.8735 8.4375 36.112 8.53627 36.2878 8.71209C36.4636 8.8879 36.5624 9.12636 36.5624 9.375V20.625C36.5624 20.8736 36.6611 21.1121 36.8369 21.2879C37.0128 21.4637 37.2512 21.5625 37.4999 21.5625C37.7485 21.5625 37.987 21.4637 38.1628 21.2879C38.3386 21.1121 38.4374 20.8736 38.4374 20.625V15.9375C38.4374 15.6889 38.5361 15.4504 38.7119 15.2746C38.8878 15.0988 39.1262 15 39.3749 15C39.6235 15 39.862 15.0988 40.0378 15.2746C40.2136 15.4504 40.3124 15.6889 40.3124 15.9375V20.625C40.3124 20.8736 40.4111 21.1121 40.5869 21.2879C40.7628 21.4637 41.0012 21.5625 41.2499 21.5625C41.4985 21.5625 41.737 21.4637 41.9128 21.2879C42.0886 21.1121 42.1874 20.8736 42.1874 20.625V16.875C42.1874 16.6264 42.2861 16.3879 42.4619 16.2121C42.6378 16.0363 42.8762 15.9375 43.1249 15.9375C43.3735 15.9375 43.612 16.0363 43.7878 16.2121C43.9636 16.3879 44.0624 16.6264 44.0624 16.875V20.625C44.0624 20.8736 44.1611 21.1121 44.3369 21.2879C44.5128 21.4637 44.7512 21.5625 44.9999 21.5625C45.2485 21.5625 45.487 21.4637 45.6628 21.2879C45.8386 21.1121 45.9374 20.8736 45.9374 20.625V17.8125C45.9374 17.5639 46.0361 17.3254 46.2119 17.1496C46.3878 16.9738 46.6262 16.875 46.8749 16.875C47.1235 16.875 47.362 16.9738 47.5378 17.1496C47.7136 17.3254 47.8124 17.5639 47.8124 17.8125V27.4219Z" fill="#F26A21"/>
</svg>
