<svg width="60" height="60" viewBox="0 0 60 60" fill="none" xmlns="http://www.w3.org/2000/svg">
<path d="M55.4999 23.4004H53.9999V15.6004V9.30039C53.9999 8.16039 53.0399 7.20039 51.8999 7.20039H47.9999C47.9999 6.18039 47.1599 5.40039 46.1399 5.40039H39.0599C38.0399 5.40039 37.2599 6.18039 37.1999 7.20039H33.5999C33.5999 6.18039 32.7599 5.40039 31.7399 5.40039H24.6599C23.6399 5.40039 22.8599 6.18039 22.7999 7.20039H19.1999C19.1999 6.18039 18.3599 5.40039 17.3399 5.40039H10.2599C9.2399 5.40039 8.4599 6.18039 8.3999 7.20039H4.4999C3.3599 7.20039 2.3999 8.16039 2.3999 9.30039V15.6004V47.7004C2.3999 48.8404 3.3599 49.8004 4.4999 49.8004H25.7999V52.5004C25.7999 53.6404 26.7599 54.6004 27.8999 54.6004H55.4999C56.6399 54.6004 57.5999 53.6404 57.5999 52.5004V25.5004C57.5999 24.3604 56.6399 23.4004 55.4999 23.4004ZM38.3999 7.26039C38.3999 6.90039 38.6999 6.60039 39.0599 6.60039H46.1399C46.4999 6.60039 46.7999 6.90039 46.7999 7.26039V7.80039V11.4004H38.3999V7.80039V7.26039ZM23.9999 7.26039C23.9999 6.90039 24.2999 6.60039 24.6599 6.60039H31.7399C32.0999 6.60039 32.3999 6.90039 32.3999 7.26039V7.80039V11.4004H23.9999V7.80039V7.26039ZM9.5999 7.26039C9.5999 6.90039 9.8999 6.60039 10.2599 6.60039H17.3399C17.6999 6.60039 17.9999 6.90039 17.9999 7.26039V7.80039V11.4004H9.5999V7.80039V7.26039ZM3.5999 9.30039C3.5999 8.82039 4.0199 8.40039 4.4999 8.40039H8.3999V12.0004C8.3999 12.3604 8.6399 12.6004 8.9999 12.6004H18.5999C18.9599 12.6004 19.1999 12.3604 19.1999 12.0004V8.40039H22.7999V12.0004C22.7999 12.3604 23.0399 12.6004 23.3999 12.6004H32.9999C33.3599 12.6004 33.5999 12.3604 33.5999 12.0004V8.40039H37.1999V12.0004C37.1999 12.3604 37.4399 12.6004 37.7999 12.6004H47.3999C47.7599 12.6004 47.9999 12.3604 47.9999 12.0004V8.40039H51.8999C52.3799 8.40039 52.7999 8.82039 52.7999 9.30039V15.0004H3.5999V9.30039ZM4.4999 48.6004C4.0199 48.6004 3.5999 48.1804 3.5999 47.7004V16.2004H52.7999V23.4004H27.8999C26.7599 23.4004 25.7999 24.3604 25.7999 25.5004V48.6004H4.4999ZM56.3999 52.5004C56.3999 52.9804 55.9799 53.4004 55.4999 53.4004H27.8999C27.4199 53.4004 26.9999 52.9804 26.9999 52.5004V49.2004V25.5004C26.9999 25.0204 27.4199 24.6004 27.8999 24.6004H53.3999H55.4999C55.9799 24.6004 56.3999 25.0204 56.3999 25.5004V52.5004Z" fill="#F26A21"/>
<path d="M33.5999 33H29.9999C29.6399 33 29.3999 33.24 29.3999 33.6V37.2C29.3999 37.56 29.6399 37.8 29.9999 37.8H33.5999C33.9599 37.8 34.1999 37.56 34.1999 37.2V33.6C34.1999 33.24 33.9599 33 33.5999 33ZM32.9999 36.6H30.5999V34.2H32.9999V36.6Z" fill="#F26A21"/>
<path d="M36.6 37.8H40.2C40.56 37.8 40.8 37.56 40.8 37.2V33.6C40.8 33.24 40.56 33 40.2 33H36.6C36.24 33 36 33.24 36 33.6V37.2C36 37.56 36.24 37.8 36.6 37.8ZM37.2 34.2H39.6V36.6H37.2V34.2Z" fill="#F26A21"/>
<path d="M46.8001 33H43.2001C42.8401 33 42.6001 33.24 42.6001 33.6V37.2C42.6001 37.56 42.8401 37.8 43.2001 37.8H46.8001C47.1601 37.8 47.4001 37.56 47.4001 37.2V33.6C47.4001 33.24 47.1601 33 46.8001 33ZM46.2001 36.6H43.8001V34.2H46.2001V36.6Z" fill="#F26A21"/>
<path d="M53.3997 33H49.7997C49.4397 33 49.1997 33.24 49.1997 33.6V37.2C49.1997 37.56 49.4397 37.8 49.7997 37.8H53.3997C53.7597 37.8 53.9997 37.56 53.9997 37.2V33.6C53.9997 33.24 53.7597 33 53.3997 33ZM52.7997 36.6H50.3997V34.2H52.7997V36.6Z" fill="#F26A21"/>
<path d="M33.5999 39.5996H29.9999C29.6399 39.5996 29.3999 39.8396 29.3999 40.1996V43.7996C29.3999 44.1596 29.6399 44.3996 29.9999 44.3996H33.5999C33.9599 44.3996 34.1999 44.1596 34.1999 43.7996V40.1996C34.1999 39.8396 33.9599 39.5996 33.5999 39.5996ZM32.9999 43.1996H30.5999V40.7996H32.9999V43.1996Z" fill="#F26A21"/>
<path d="M46.8001 39.5996H43.2001C42.8401 39.5996 42.6001 39.8396 42.6001 40.1996V43.7996C42.6001 44.1596 42.8401 44.3996 43.2001 44.3996H46.8001C47.1601 44.3996 47.4001 44.1596 47.4001 43.7996V40.1996C47.4001 39.8396 47.1601 39.5996 46.8001 39.5996ZM46.2001 43.1996H43.8001V40.7996H46.2001V43.1996Z" fill="#F26A21"/>
<path d="M53.3997 39.5996H49.7997C49.4397 39.5996 49.1997 39.8396 49.1997 40.1996V43.7996C49.1997 44.1596 49.4397 44.3996 49.7997 44.3996H53.3997C53.7597 44.3996 53.9997 44.1596 53.9997 43.7996V40.1996C53.9997 39.8396 53.7597 39.5996 53.3997 39.5996ZM52.7997 43.1996H50.3997V40.7996H52.7997V43.1996Z" fill="#F26A21"/>
<path d="M33.5999 46.2012H29.9999C29.6399 46.2012 29.3999 46.4412 29.3999 46.8012V50.4012C29.3999 50.7612 29.6399 51.0012 29.9999 51.0012H33.5999C33.9599 51.0012 34.1999 50.7612 34.1999 50.4012V46.8012C34.1999 46.4412 33.9599 46.2012 33.5999 46.2012ZM32.9999 49.8012H30.5999V47.4012H32.9999V49.8012Z" fill="#F26A21"/>
<path d="M40.2 46.2012H36.6C36.24 46.2012 36 46.4412 36 46.8012V50.4012C36 50.7612 36.24 51.0012 36.6 51.0012H40.2C40.56 51.0012 40.8 50.7612 40.8 50.4012V46.8012C40.8 46.4412 40.56 46.2012 40.2 46.2012ZM39.6 49.8012H37.2V47.4012H39.6V49.8012Z" fill="#F26A21"/>
<path d="M46.8001 46.2012H43.2001C42.8401 46.2012 42.6001 46.4412 42.6001 46.8012V50.4012C42.6001 50.7612 42.8401 51.0012 43.2001 51.0012H46.8001C47.1601 51.0012 47.4001 50.7612 47.4001 50.4012V46.8012C47.4001 46.4412 47.1601 46.2012 46.8001 46.2012ZM46.2001 49.8012H43.8001V47.4012H46.2001V49.8012Z" fill="#F26A21"/>
<path d="M53.3997 46.2012H49.7997C49.4397 46.2012 49.1997 46.4412 49.1997 46.8012V50.4012C49.1997 50.7612 49.4397 51.0012 49.7997 51.0012H53.3997C53.7597 51.0012 53.9997 50.7612 53.9997 50.4012V46.8012C53.9997 46.4412 53.7597 46.2012 53.3997 46.2012ZM52.7997 49.8012H50.3997V47.4012H52.7997V49.8012Z" fill="#F26A21"/>
<path d="M50.4 28.5004C50.4 27.3604 49.44 26.4004 48.3 26.4004H35.1C33.96 26.4004 33 27.3604 33 28.5004C33 29.6404 33.96 30.6004 35.1 30.6004H48.3C49.44 30.6004 50.4 29.6404 50.4 28.5004ZM48.3 29.4004H35.1C34.62 29.4004 34.2 28.9804 34.2 28.5004C34.2 28.0204 34.62 27.6004 35.1 27.6004H48.3C48.78 27.6004 49.2 28.0204 49.2 28.5004C49.2 28.9804 48.78 29.4004 48.3 29.4004Z" fill="#F26A21"/>
<path d="M40.98 38.5804L39.96 39.6004H36.6C36.54 39.6004 36.42 39.6004 36.36 39.6604C36.24 39.7204 36.12 39.8404 36.06 39.9604C36 40.0204 36 40.1404 36 40.2004V43.8004C36 44.1604 36.24 44.4004 36.6 44.4004H40.2C40.56 44.4004 40.8 44.1604 40.8 43.8004V40.4404L41.82 39.4204C42.06 39.1804 42.06 38.8204 41.82 38.5804C41.58 38.3404 41.22 38.3404 40.98 38.5804ZM38.76 40.8004L38.4 41.1604L38.04 40.8004H38.76ZM39.6 43.2004H37.2V41.6404L37.98 42.4204C38.1 42.5404 38.28 42.6004 38.4 42.6004C38.52 42.6004 38.7 42.5404 38.82 42.4204L39.6 41.6404V43.2004Z" fill="#F26A21"/>
<path d="M20.6397 30.1811C22.7997 27.9611 22.7997 24.4811 22.7997 24.3611C22.7997 24.0611 22.5597 23.7611 22.1997 23.7611C22.1997 23.7611 21.7197 23.7611 21.0597 23.8811C20.2197 20.2811 15.4797 17.5811 15.2997 17.4611C15.1197 17.3411 14.8797 17.3411 14.6997 17.4611C14.5197 17.5811 9.71971 20.2811 8.93971 23.8811C8.27971 23.7611 7.85971 23.7611 7.79971 23.7611C7.49971 23.7611 7.19971 24.0011 7.19971 24.3611C7.19971 24.4811 7.19971 27.9611 9.35971 30.1811C10.9797 31.8611 13.3197 32.2811 14.3997 32.3411V34.8011C14.2797 34.6811 14.1597 34.5011 14.0397 34.3811C12.3597 32.6411 9.53971 32.8211 9.41971 32.8211C9.11971 32.8211 8.87971 33.0611 8.87971 33.3611C8.87971 33.4811 8.75971 36.3011 10.4397 38.0411C11.6997 39.3011 13.4997 39.5411 14.4597 39.6011V42.1811L7.67971 44.4611C7.37971 44.5811 7.25971 44.8211 7.25971 45.1211C7.31971 45.4211 7.55971 45.6011 7.85971 45.6011H22.2597C22.5597 45.6011 22.7997 45.3611 22.8597 45.1211C22.9197 44.8211 22.7397 44.5211 22.4397 44.4611L15.5997 42.1811V39.6011C16.5597 39.5411 18.3597 39.3011 19.6197 38.0411C21.2997 36.3011 21.1797 33.4811 21.1797 33.3611C21.1797 33.0611 20.9397 32.8211 20.6397 32.8211C20.5197 32.8211 17.6997 32.7011 16.0197 34.3811C15.8997 34.5011 15.7797 34.6811 15.6597 34.8011V32.3411C16.6797 32.2811 19.0797 31.8611 20.6397 30.1811ZM14.1597 29.6411C14.0997 29.4611 13.9797 29.3411 13.9197 29.1611C13.9197 29.1011 13.8597 29.1011 13.8597 29.0411C13.7997 28.8611 13.7397 28.6811 13.6797 28.5611C13.6797 28.5611 13.6797 28.5011 13.6197 28.5011C13.5597 28.3211 13.4997 28.2011 13.4397 28.0211C13.4397 27.9611 13.4397 27.9611 13.4397 27.9011C13.3797 27.7211 13.3797 27.5411 13.3197 27.3611C13.3197 27.3011 13.3197 27.3011 13.3197 27.2411C13.3197 27.0611 13.2597 26.8211 13.2597 26.6411C13.2597 26.5211 13.2597 26.4011 13.2597 26.2211C13.3197 25.2011 13.7397 24.2411 14.1597 23.5211C14.1597 23.5211 14.1597 23.4611 14.2197 23.4611C14.2197 23.4611 14.2197 23.4611 14.2197 23.4011C14.4597 22.9811 14.7597 22.6211 14.9397 22.3211C15.5397 23.0411 16.4997 24.5411 16.6197 26.2211V26.6411C16.6197 26.8211 16.6197 27.0611 16.5597 27.2411V27.3611C16.5597 27.5411 16.4997 27.7211 16.4397 27.9011V28.0211C16.3797 28.2011 16.3197 28.3211 16.2597 28.5011C16.2597 28.5611 16.2597 28.5611 16.1997 28.6211C16.1397 28.8011 16.0797 28.9811 16.0197 29.1011C16.0197 29.1611 15.9597 29.1611 15.9597 29.2211C15.8997 29.4011 15.8397 29.5211 15.7197 29.6411V29.7011C15.6597 29.8211 15.5397 30.0011 15.4797 30.1211C15.4797 30.1811 15.4197 30.1811 15.4197 30.2411C15.3597 30.3611 15.2397 30.4811 15.1797 30.6011C15.1797 30.6011 15.1797 30.6611 15.1197 30.6611C15.0597 30.7811 14.9997 30.8411 14.9397 30.9611V31.0211C14.8797 30.9611 14.8197 30.8411 14.6997 30.7211C14.6997 30.7211 14.6997 30.6611 14.6397 30.6611C14.5797 30.5411 14.4597 30.4211 14.3997 30.3011L14.3397 30.2411C14.3397 29.9411 14.2197 29.7611 14.1597 29.6411ZM19.7997 29.3411C18.7797 30.3611 17.3997 30.8411 16.3797 31.0211C16.3797 31.0211 16.3797 30.9611 16.4397 30.9611C16.4997 30.8411 16.5597 30.7811 16.6197 30.6611C16.6197 30.6011 16.6797 30.6011 16.6797 30.5411C16.7397 30.4211 16.8597 30.2411 16.9197 30.1211C16.9797 30.0011 17.0997 29.8211 17.1597 29.6411C17.1597 29.5811 17.2197 29.5211 17.2197 29.5211L17.3997 29.1611C17.3997 29.1011 17.4597 29.0411 17.4597 28.9811C17.5197 28.8011 17.5797 28.6211 17.6397 28.4411C17.6997 28.2611 17.7597 28.0811 17.7597 27.9011C17.7597 27.8411 17.7597 27.7811 17.8197 27.7211C17.8197 27.6011 17.8797 27.4211 17.8797 27.3011C17.8797 27.2411 17.8797 27.1811 17.8797 27.1211C17.8797 26.9411 17.9397 26.7011 17.9397 26.5211C17.9397 26.4611 17.9397 26.4011 17.9397 26.3411C17.9997 26.2811 18.1197 26.2211 18.1797 26.1611C18.2397 26.1011 18.3597 26.0411 18.4197 25.9811C18.5397 25.9211 18.7197 25.8011 18.8397 25.7411C18.8997 25.6811 19.0197 25.6211 19.0797 25.6211L19.6197 25.4411C19.6797 25.4411 19.7997 25.3811 19.8597 25.3811C20.1597 25.3211 20.3997 25.2011 20.6997 25.1411C20.9997 25.0811 21.2997 25.0211 21.5397 25.0211C21.4797 26.0411 21.1197 28.0211 19.7997 29.3411ZM14.9997 18.7211C16.0197 19.3211 19.3197 21.5411 19.9197 24.1211C19.7997 24.1811 19.6797 24.1811 19.4997 24.2411C19.4397 24.2411 19.4397 24.2411 19.3797 24.3011C19.0797 24.4211 18.8397 24.4811 18.5397 24.6011C18.4797 24.6011 18.4197 24.6611 18.3597 24.6611C18.1197 24.7811 17.8797 24.9011 17.6997 25.0211C17.6997 24.9611 17.6997 24.9611 17.6397 24.9011C17.6397 24.7811 17.5797 24.6611 17.5197 24.5411C17.5197 24.4811 17.4597 24.4211 17.4597 24.3611C17.3997 24.2411 17.3997 24.1811 17.3397 24.0611C17.3397 24.0011 17.2797 23.9411 17.2797 23.8811C17.2197 23.8211 17.2197 23.7011 17.1597 23.6411C17.1597 23.5811 17.0997 23.5211 17.0997 23.4611C17.0397 23.4011 17.0397 23.2811 16.9797 23.2211C16.9797 23.1611 16.9197 23.1011 16.9197 23.0411C16.8597 22.9811 16.8597 22.8611 16.7997 22.8011C16.7997 22.7411 16.7397 22.6811 16.7397 22.6811C16.6797 22.6211 16.6197 22.5011 16.6197 22.4411C16.6197 22.3811 16.5597 22.3811 16.5597 22.3211C16.4997 22.2011 16.4397 22.1411 16.3797 22.0211L16.3197 21.9611C16.2597 21.9011 16.1997 21.8411 16.1997 21.7211C16.1997 21.6611 16.1397 21.6611 16.1397 21.6011C16.0797 21.5411 16.0797 21.4811 16.0197 21.4811C16.0197 21.4211 15.9597 21.4211 15.9597 21.3611C15.8997 21.3011 15.8997 21.3011 15.8397 21.2411L15.7797 21.1811C15.7797 21.1211 15.7197 21.1211 15.7197 21.0611L15.6597 21.0011L15.5997 20.9411L15.5397 20.8811L15.4797 20.8211L15.4197 20.7611C15.2997 20.6411 15.1797 20.5811 14.9997 20.5811C14.8197 20.5811 14.6997 20.6411 14.5797 20.7611C14.5797 20.7611 14.5797 20.7611 14.5197 20.8211C14.4597 20.8811 14.5197 20.8811 14.4597 20.8811L14.3997 20.9411L14.3397 21.0011L14.2797 21.0611L14.2197 21.1211C14.2197 21.1811 14.1597 21.1811 14.1597 21.2411C14.1597 21.3011 14.0997 21.3011 14.0997 21.3611C14.0397 21.4211 14.0397 21.4211 13.9797 21.4811C13.9797 21.5411 13.9197 21.5411 13.9197 21.6011C13.8597 21.6611 13.8597 21.7211 13.7997 21.7211L13.7397 21.7811C13.6197 21.9611 13.4397 22.2011 13.2597 22.5011C13.2597 22.5611 13.1997 22.5611 13.1997 22.6211C13.1397 22.6811 13.1397 22.8011 13.0797 22.8611C13.0797 22.9211 13.0197 22.9211 13.0197 22.9811C12.9597 23.0411 12.9597 23.1611 12.8997 23.2211C12.8997 23.2811 12.8397 23.2811 12.8397 23.3411C12.7797 23.4011 12.7797 23.5211 12.7197 23.5811C12.7197 23.6411 12.6597 23.7011 12.6597 23.7011C12.5997 23.7611 12.5997 23.8811 12.5397 24.0011C12.5397 24.0611 12.4797 24.1211 12.4797 24.1811C12.4197 24.3011 12.4197 24.3611 12.3597 24.4811C12.3597 24.5411 12.3597 24.6011 12.2997 24.6611C12.2997 24.7811 12.2397 24.8411 12.2397 24.9611C11.9997 24.8411 11.8197 24.7211 11.5797 24.6011C11.5197 24.6011 11.4597 24.5411 11.3997 24.5411C11.1597 24.4211 10.8597 24.3011 10.5597 24.2411C10.4997 24.2411 10.4997 24.2411 10.4397 24.1811C10.3197 24.1211 10.1997 24.1211 10.0197 24.0611C10.6797 21.4811 13.9797 19.3211 14.9997 18.7211ZM10.1997 29.3411C8.87971 28.0211 8.51971 26.0411 8.45971 25.0211C8.69971 25.0211 8.99971 25.0811 9.29971 25.1411C9.59971 25.2011 9.89971 25.2611 10.1397 25.3811C10.1997 25.3811 10.3197 25.4411 10.3797 25.5011C10.5597 25.5611 10.7397 25.6211 10.9197 25.6811C11.0397 25.7411 11.0997 25.8011 11.1597 25.8011C11.2797 25.8611 11.4597 25.9211 11.5797 26.0411C11.6397 26.1011 11.7597 26.1611 11.8197 26.2211C11.8797 26.2811 11.9997 26.3411 12.0597 26.4011V26.5811C12.0597 26.7611 12.0597 27.0011 12.1197 27.1811V27.3611C12.1197 27.4811 12.1797 27.6611 12.1797 27.7811C12.1797 27.8411 12.1797 27.9011 12.2397 27.9611C12.2997 28.1411 12.2997 28.3211 12.3597 28.5011C12.4197 28.6811 12.4797 28.8611 12.5397 29.0411C12.5397 29.1011 12.5997 29.1611 12.5997 29.2211L12.7797 29.5811C12.7797 29.6411 12.8397 29.7011 12.8397 29.7611C12.8997 29.8811 12.9597 30.0011 13.0197 30.1811C13.0197 30.2411 13.0797 30.2411 13.0797 30.3011C13.1397 30.4211 13.1997 30.5411 13.3197 30.6611C13.3797 30.7211 13.3797 30.7811 13.4397 30.8411C13.4997 30.9011 13.5597 31.0211 13.5597 31.0811C13.5597 31.0811 13.6197 31.1411 13.6197 31.2011C12.5997 30.8411 11.2197 30.4211 10.1997 29.3411ZM11.2797 37.2011C10.3797 36.3011 10.1397 34.8611 10.0797 34.0211C10.8597 34.0811 12.2997 34.3211 13.1997 35.2211C14.0997 36.1211 14.3397 37.5611 14.3997 38.4011C13.6197 38.3411 12.1797 38.1011 11.2797 37.2011ZM11.5197 44.4011L14.9997 43.2611L18.4797 44.4011H11.5197ZM16.7997 35.2211C17.6997 34.3211 19.1397 34.0811 19.9197 34.0211C19.8597 34.8011 19.6197 36.2411 18.7197 37.2011C17.8197 38.1011 16.3797 38.3411 15.5997 38.4011C15.6597 37.5611 15.8997 36.1811 16.7997 35.2211Z" fill="#F26A21"/>
</svg>
