<svg width="60" height="60" viewBox="0 0 60 60" fill="none" xmlns="http://www.w3.org/2000/svg">
<g clip-path="url(#clip0_2619_9766)">
<path d="M48.5742 13.2024C48.5742 14.3239 49.0285 15.3372 49.7635 16.0722C50.4973 16.806 51.5118 17.2603 52.6321 17.2603C54.8727 17.2603 56.69 15.4442 56.69 13.2024C56.69 12.0821 56.2357 11.0688 55.5019 10.3338C54.7681 9.59884 53.7524 9.14453 52.6321 9.14453C51.5118 9.14453 50.4961 9.59884 49.7635 10.3338C49.0285 11.0688 48.5742 12.0821 48.5742 13.2024Z" stroke="#F26A21" stroke-width="1.78394" stroke-miterlimit="10"/>
<path d="M52.6323 9.1438V5.83398" stroke="#F26A21" stroke-width="1.78394" stroke-miterlimit="10"/>
<path d="M55.502 10.3327L57.8425 7.99219" stroke="#F26A21" stroke-width="1.78394" stroke-miterlimit="10"/>
<path d="M56.6904 13.2012H60.0002" stroke="#F26A21" stroke-width="1.78394" stroke-miterlimit="10"/>
<path d="M55.502 16.0723L57.8425 18.4128" stroke="#F26A21" stroke-width="1.78394" stroke-miterlimit="10"/>
<path d="M52.6323 17.2598V20.5696" stroke="#F26A21" stroke-width="1.78394" stroke-miterlimit="10"/>
<path d="M49.7639 16.0723L47.4233 18.4128" stroke="#F26A21" stroke-width="1.78394" stroke-miterlimit="10"/>
<path d="M48.5745 13.2012H45.2646" stroke="#F26A21" stroke-width="1.78394" stroke-miterlimit="10"/>
<path d="M49.7639 10.3327L47.4233 7.99219" stroke="#F26A21" stroke-width="1.78394" stroke-miterlimit="10"/>
<path d="M52.6323 14.0796V12.3242" stroke="#F26A21" stroke-width="1.78394" stroke-miterlimit="10"/>
<path d="M46.7228 23.4705C45.9879 22.7356 44.9746 22.2812 43.8543 22.2812C42.7328 22.2812 41.7195 22.7356 40.9845 23.4705C40.2507 24.2043 39.7964 25.2188 39.7964 26.3391C39.7964 28.5798 41.6124 30.397 43.8543 30.397C44.9746 30.397 45.9879 29.9427 46.7228 29.2089C47.4578 28.4751 47.9121 27.4594 47.9121 26.3391C47.9121 25.2188 47.4578 24.2043 46.724 23.4705" stroke="#F26A21" stroke-width="1.78394" stroke-miterlimit="10"/>
<path d="M43.854 22.2825V18.9727" stroke="#F26A21" stroke-width="1.78394" stroke-miterlimit="10"/>
<path d="M46.7227 23.4714H46.7238L49.0632 21.1309" stroke="#F26A21" stroke-width="1.78394" stroke-miterlimit="10"/>
<path d="M47.9121 26.3398H51.2219" stroke="#F26A21" stroke-width="1.78394" stroke-miterlimit="10"/>
<path d="M46.7227 29.209L49.0632 31.5495" stroke="#F26A21" stroke-width="1.78394" stroke-miterlimit="10"/>
<path d="M43.854 30.3984V33.7083" stroke="#F26A21" stroke-width="1.78394" stroke-miterlimit="10"/>
<path d="M40.9841 29.209L38.6436 31.5495" stroke="#F26A21" stroke-width="1.78394" stroke-miterlimit="10"/>
<path d="M39.7961 26.3398H36.4863" stroke="#F26A21" stroke-width="1.78394" stroke-miterlimit="10"/>
<path d="M40.9841 23.4714L38.6436 21.1309" stroke="#F26A21" stroke-width="1.78394" stroke-miterlimit="10"/>
<path d="M43.854 27.2183V25.4629" stroke="#F26A21" stroke-width="1.78394" stroke-miterlimit="10"/>
<path d="M15.8838 7.37317C17.6751 5.35434 20.2893 4.08203 23.2008 4.08203C25.9005 4.08203 28.3445 5.17618 30.1142 6.94586C31.8839 8.71553 32.978 11.1595 32.978 13.8592V15.6765V16.8563V19.8533C32.978 20.3326 32.9435 20.8047 32.8757 21.2662C32.4012 24.5498 30.2938 27.3054 27.4026 28.6826" stroke="#F26A21" stroke-width="1.78394" stroke-miterlimit="10"/>
<path d="M18.9978 28.682C16.1066 27.3048 13.9992 24.5492 13.5246 21.2656C13.4569 20.8041 13.4224 20.332 13.4224 19.8527V16.8557V15.6759V13.8586C13.4224 12.0001 13.941 10.2627 14.8416 8.7832" stroke="#F26A21" stroke-width="1.78394" stroke-miterlimit="10"/>
<path d="M27.4028 28.6836C26.1303 29.2901 24.7055 29.6303 23.201 29.6303C21.6966 29.6303 20.2706 29.2901 18.998 28.6836" stroke="#F26A21" stroke-width="1.78394" stroke-miterlimit="10"/>
<path d="M27.4028 28.6836V28.6848V31.6521V34.6967C27.4028 36.7803 25.5213 38.4703 23.201 38.4703C20.8795 38.4703 18.998 36.7803 18.998 34.6967V31.6521V28.6848V28.6836" stroke="#F26A21" stroke-width="1.78394" stroke-miterlimit="10"/>
<path d="M27.4158 31.6504L32.0302 32.6672L32.0421 32.6696L34.2994 33.1667C40.8548 34.6094 45.5216 40.4167 45.5216 47.1279V55.918H36.1476H36.1333H26.3169H20.085H10.2673H0.89209V47.1279C0.89209 40.4167 5.56008 34.6094 12.1143 33.1667L14.3728 32.6696L18.9979 31.6504" stroke="#F26A21" stroke-width="1.78394" stroke-miterlimit="10"/>
<path d="M10.2671 55.9188V48.7676" stroke="#F26A21" stroke-width="1.78394" stroke-miterlimit="10"/>
<path d="M36.1333 50.6645V48.7676" stroke="#F26A21" stroke-width="1.78394" stroke-miterlimit="10"/>
<path d="M36.1333 55.9181V52.4551" stroke="#F26A21" stroke-width="1.78394" stroke-miterlimit="10"/>
<path d="M14.3726 32.6699L17.0984 44.08L19.6518 41.7312L23.2007 38.4689" stroke="#F26A21" stroke-width="1.78394" stroke-miterlimit="10"/>
<path d="M32.0288 32.6699L29.3018 44.08L26.7579 41.7407L23.2007 38.4689" stroke="#F26A21" stroke-width="1.78394" stroke-miterlimit="10"/>
<path d="M26.7617 41.7324L26.7582 41.7407L24.778 45.6381H24.7649H23.2069H21.6359L19.6533 41.7324" stroke="#F26A21" stroke-width="1.78394" stroke-miterlimit="10"/>
<path d="M21.6358 45.6387L20.085 55.9059" stroke="#F26A21" stroke-width="1.78394" stroke-miterlimit="10"/>
<path d="M24.7646 45.6387L26.3167 55.9059" stroke="#F26A21" stroke-width="1.78394" stroke-miterlimit="10"/>
<path d="M27.4025 12.1367C27.4025 12.1367 26.6735 13.3165 24.5625 14.4975C22.4503 15.6773 18.955 16.857 13.4224 16.857" stroke="#F26A21" stroke-width="1.78394" stroke-miterlimit="10"/>
<path d="M24.5625 14.4961C24.5625 14.4961 26.7353 16.8557 32.978 16.8557" stroke="#F26A21" stroke-width="1.78394" stroke-miterlimit="10"/>
<path d="M13.25 15.6758H11.8253C10.7846 15.6758 9.94141 16.519 9.94141 17.5596V19.4209C9.94141 20.4615 10.7846 21.3047 11.8253 21.3047H13.25" stroke="#F26A21" stroke-width="1.78394" stroke-miterlimit="10"/>
<path d="M33.1514 15.6758H34.575C35.6156 15.6758 36.4588 16.519 36.4588 17.5596V19.4209C36.4588 20.4615 35.6156 21.3047 34.575 21.3047H33.1514" stroke="#F26A21" stroke-width="1.78394" stroke-miterlimit="10"/>
</g>
<defs>
<clipPath id="clip0_2619_9766">
<rect width="60" height="60" fill="white"/>
</clipPath>
</defs>
</svg>
