<svg width="24" height="24" viewBox="0 0 24 24" fill="none" xmlns="http://www.w3.org/2000/svg">
<g clip-path="url(#clip0_2619_9690)">
<path d="M12.0002 23.0706C18.1142 23.0706 23.0706 18.1142 23.0706 12.0002C23.0706 5.8861 18.1142 0.929688 12.0002 0.929688C5.8861 0.929688 0.929688 5.8861 0.929688 12.0002C0.929688 18.1142 5.8861 23.0706 12.0002 23.0706Z" fill="white"/>
<path d="M12 24C5.38373 24 0 18.6172 0 12C0 5.38373 5.38373 0 12 0C18.6172 0 24 5.38373 24 12C24 18.6172 18.6172 24 12 24ZM12 1.85902C6.40805 1.85902 1.85902 6.40805 1.85902 12C1.85902 17.592 6.40805 22.141 12 22.141C17.592 22.141 22.141 17.591 22.141 12C22.141 6.40805 17.592 1.85902 12 1.85902Z" fill="white"/>
<path d="M15.7169 15.793C15.5227 15.793 15.3275 15.7326 15.1602 15.6071L11.4421 12.8186C11.2079 12.6438 11.0703 12.3678 11.0703 12.0749V6.49789C11.0703 5.9848 11.4868 5.56836 11.9998 5.56836C12.5129 5.56836 12.9294 5.9848 12.9294 6.49789V11.6102L16.2756 14.1199C16.6865 14.4276 16.7701 15.0104 16.4615 15.4203C16.2792 15.6657 16.0004 15.793 15.7169 15.793Z" fill="#F26A21"/>
</g>
<defs>
<clipPath id="clip0_2619_9690">
<rect width="24" height="24" fill="white"/>
</clipPath>
</defs>
</svg>
