<svg width="15" height="15" viewBox="0 0 15 15" fill="none" xmlns="http://www.w3.org/2000/svg">
<g clip-path="url(#clip0_2646_8377)">
<mask id="mask0_2646_8377" style="mask-type:luminance" maskUnits="userSpaceOnUse" x="0" y="0" width="15" height="15">
<path d="M15 0H0V15H15V0Z" fill="white"/>
</mask>
<g mask="url(#mask0_2646_8377)">
<path d="M10.0198 7.50078C12.8248 6.45078 14.6998 3.75078 14.6998 0.750781C14.6998 0.495781 14.5048 0.300781 14.2498 0.300781C11.2498 0.300781 8.54981 2.17578 7.49981 4.98078C6.44981 2.17578 3.74981 0.300781 0.749805 0.300781C0.494805 0.300781 0.299805 0.495781 0.299805 0.750781C0.299805 3.75078 2.17481 6.45078 4.97981 7.50078C2.17481 8.55078 0.299805 11.2508 0.299805 14.2508C0.299805 14.5058 0.494805 14.7008 0.749805 14.7008C3.74981 14.7008 6.44981 12.8258 7.49981 10.0208C8.54981 12.8258 11.2498 14.7008 14.2498 14.7008C14.5048 14.7008 14.6998 14.5058 14.6998 14.2508C14.6998 11.2508 12.8248 8.55078 10.0198 7.50078ZM3.04481 5.20578C1.97981 4.14078 1.31981 2.73078 1.21481 1.21578C4.31981 1.45578 6.79481 3.91578 7.03481 7.03578C5.51981 6.93078 4.10981 6.27078 3.04481 5.20578ZM5.20481 11.9558C4.13981 13.0208 2.72981 13.6808 1.21481 13.7858C1.43981 10.6808 3.91481 8.20578 7.03481 7.96578C6.92981 9.48078 6.26981 10.8908 5.20481 11.9558ZM9.79481 3.04578C10.8598 1.98078 12.2698 1.32078 13.7848 1.21578C13.5448 4.32078 11.0848 6.79578 7.96481 7.03578C8.06981 5.52078 8.72981 4.11078 9.79481 3.04578ZM9.79481 11.9558C8.72981 10.8908 8.06981 9.48078 7.96481 7.96578C11.0698 8.19078 13.5448 10.6658 13.7848 13.7858C12.2698 13.6808 10.8598 13.0208 9.79481 11.9558Z" fill="#005948"/>
</g>
</g>
<defs>
<clipPath id="clip0_2646_8377">
<rect width="15" height="15" fill="white"/>
</clipPath>
</defs>
</svg>
